<svg xmlns:mydata="http://www.w3.org/2000/svg" mydata:contrastcolor="11111f" mydata:template="Contrast"
     mydata:presentation="2.5" mydata:layouttype="undefined" mydata:specialfontid="undefined" mydata:id1="290"
     mydata:id2="213" mydata:companyname="Centalabs" mydata:companytagline="Digital Empowerment" version="1.1"
     xmlns="http://www.w3.org/2000/svg" xmlns:xlink="http://www.w3.org/1999/xlink" viewBox="65 188.43 420.02 93.13">
    <g fill="#ff7f32" fill-rule="nonzero" stroke="none" stroke-width="1" stroke-linecap="butt" stroke-linejoin="miter"
       stroke-miterlimit="10" stroke-dasharray="" stroke-dashoffset="0" font-family="none" font-weight="none"
       font-size="none" text-anchor="none" style="mix-blend-mode: normal">
        <g data-paper-data="{&quot;isGlobalGroup&quot;:true,&quot;bounds&quot;:{&quot;x&quot;:65,&quot;y&quot;:188.43864064779268,&quot;width&quot;:420,&quot;height&quot;:93.12271870441464}}">
            <g data-paper-data="{&quot;isSecondaryText&quot;:true}">
                <path d="M77.98618,281.30195c0.79819,0.15964 2.05534,0.25941 2.81362,0.25941c4.68936,0 8.12158,-2.65398 8.12158,-7.34334c0,-4.03086 -2.47439,-6.78461 -7.60275,-6.78461c-0.87801,0 -2.13516,0.09977 -3.33244,0.23946zM79.62247,268.98988c0.59864,-0.07982 1.19728,-0.11973 1.63629,-0.11973c3.91113,0 5.88665,1.99547 5.88665,5.54742c0,3.65172 -2.65398,5.70705 -6.22588,5.70705c-0.29932,0 -0.85805,-0.03991 -1.29706,-0.09977z"
                      data-paper-data="{&quot;glyphName&quot;:&quot;D&quot;,&quot;glyphIndex&quot;:0,&quot;firstGlyphOfWord&quot;:true,&quot;word&quot;:1}"></path>
                <path d="M102.13041,281.36181v-13.72885h-1.63629v13.72885z"
                      data-paper-data="{&quot;glyphName&quot;:&quot;I&quot;,&quot;glyphIndex&quot;:1,&quot;word&quot;:1}"></path>
                <path d="M124.48677,274.7568h-4.56963v1.43674h2.93335v3.51203c-0.69842,0.27937 -1.79593,0.41905 -2.49434,0.41905c-2.87348,0 -4.88891,-1.85579 -4.88891,-5.6871c0,-3.73153 2.49434,-5.58732 5.08846,-5.58732c1.59638,0 2.89344,0.37914 3.95104,0.99774l0.11973,-1.53651c-0.8381,-0.55873 -2.3347,-0.87801 -3.87122,-0.87801c-3.55194,0 -7.12384,2.31475 -7.12384,7.16375c0,4.46986 2.57416,6.9642 6.54515,6.9642c1.2771,0 3.19276,-0.29932 4.31022,-0.77823z"
                      data-paper-data="{&quot;glyphName&quot;:&quot;G&quot;,&quot;glyphIndex&quot;:2,&quot;word&quot;:1}"></path>
                <path d="M138.32151,281.36181v-13.72885h-1.63629v13.72885z"
                      data-paper-data="{&quot;glyphName&quot;:&quot;I&quot;,&quot;glyphIndex&quot;:3,&quot;word&quot;:1}"></path>
                <path d="M158.35043,269.14952v-1.43674h-9.93746v1.43674h4.15058v12.2123h1.63629v-12.2123z"
                      data-paper-data="{&quot;glyphName&quot;:&quot;T&quot;,&quot;glyphIndex&quot;:4,&quot;word&quot;:1}"></path>
                <path d="M175.89789,276.83209l1.4567,4.52972h1.79593l-4.64945,-13.72885h-2.1152l-4.64945,13.72885h1.73606l1.4567,-4.52972zM175.43893,275.39535h-4.05081l2.01543,-6.30569z"
                      data-paper-data="{&quot;glyphName&quot;:&quot;A&quot;,&quot;glyphIndex&quot;:5,&quot;word&quot;:1}"></path>
                <path d="M192.77257,279.92507v-12.29211h-1.63629v13.72885h7.44311v-1.43674z"
                      data-paper-data="{&quot;glyphName&quot;:&quot;L&quot;,&quot;glyphIndex&quot;:6,&quot;lastGlyphOfWord&quot;:true,&quot;word&quot;:1}"></path>
                <path d="M229.51515,269.14952v-1.43674h-7.30343v13.64904h7.38325v-1.43674h-5.74696v-4.76918h5.02859v-1.43674h-5.02859v-4.56963z"
                      data-paper-data="{&quot;glyphName&quot;:&quot;E&quot;,&quot;glyphIndex&quot;:7,&quot;firstGlyphOfWord&quot;:true,&quot;word&quot;:2}"></path>
                <path d="M245.44386,267.63296h-2.49434l-0.19955,13.72885h1.59638l0.11973,-8.34108c0.01995,-0.79819 -0.03991,-2.99321 -0.07982,-4.19049c0.37914,1.4966 0.97778,3.3923 1.29706,4.19049l3.15285,8.26126h1.77597l3.15285,-8.26126c0.45896,-1.19728 0.99774,-2.9533 1.2771,-4.19049c-0.03991,1.19728 -0.07982,2.99321 -0.05986,4.19049l0.11973,8.34108h1.63629l-0.19955,-13.72885h-2.47439l-3.19276,8.58053c-0.439,1.19728 -0.81814,2.39457 -1.11746,3.59185c-0.29932,-1.19728 -0.67846,-2.39457 -1.11746,-3.59185z"
                      data-paper-data="{&quot;glyphName&quot;:&quot;M&quot;,&quot;glyphIndex&quot;:8,&quot;word&quot;:2}"></path>
                <path d="M270.90472,281.36181h1.63629v-5.58732c0.33923,0.03991 0.57869,0.05986 0.89796,0.05986c2.91339,0 5.44764,-1.43674 5.44764,-4.39004c0,-2.25488 -1.69615,-4.0109 -4.98868,-4.0109c-0.87801,0 -1.83584,0.07982 -2.99321,0.29932zM272.541,268.96992c0.63855,-0.07982 0.95783,-0.09977 1.39683,-0.09977c2.03538,0 3.1728,1.09751 3.1728,2.77371c0,1.83584 -1.55647,2.79366 -3.61181,2.79366c-0.23946,0 -0.65851,-0.01995 -0.95783,-0.05986z"
                      data-paper-data="{&quot;glyphName&quot;:&quot;P&quot;,&quot;glyphIndex&quot;:9,&quot;word&quot;:2}"></path>
                <path d="M296.60288,267.43341c-3.75149,0 -6.3456,2.7338 -6.3456,7.06397c0,4.33018 2.59412,7.06397 6.3456,7.06397c3.75149,0 6.3456,-2.7338 6.3456,-7.06397c0,-4.33018 -2.59412,-7.06397 -6.3456,-7.06397zM296.60288,268.87015c2.41452,0 4.50977,1.83584 4.50977,5.62723c0,3.7914 -2.09525,5.62723 -4.50977,5.62723c-2.41452,0 -4.50977,-1.83584 -4.50977,-5.62723c0,-3.7914 2.09525,-5.62723 4.50977,-5.62723z"
                      data-paper-data="{&quot;glyphName&quot;:&quot;O&quot;,&quot;glyphIndex&quot;:10,&quot;word&quot;:2}"></path>
                <path d="M317.80096,267.63296h-1.87574l3.69163,13.72885h2.09525l1.95556,-8.34108c0.27937,-1.19728 0.49887,-2.39457 0.67846,-3.59185c0.17959,1.19728 0.41905,2.39457 0.69842,3.59185l1.95556,8.34108h2.07529l3.75149,-13.72885h-1.77597l-2.15511,8.58053c-0.29932,1.19728 -0.57869,2.39457 -0.77823,3.61181c-0.15964,-1.21724 -0.37914,-2.41452 -0.67846,-3.61181l-2.07529,-8.50072h-1.8957l-2.07529,8.50072c-0.27937,1.19728 -0.53878,2.39457 -0.71837,3.59185c-0.2195,-1.19728 -0.439,-2.25488 -0.75828,-3.59185z"
                      data-paper-data="{&quot;glyphName&quot;:&quot;W&quot;,&quot;glyphIndex&quot;:11,&quot;word&quot;:2}"></path>
                <path d="M352.94418,269.14952v-1.43674h-7.30343v13.64904h7.38325v-1.43674h-5.74696v-4.76918h5.02859v-1.43674h-5.02859v-4.56963z"
                      data-paper-data="{&quot;glyphName&quot;:&quot;E&quot;,&quot;glyphIndex&quot;:12,&quot;word&quot;:2}"></path>
                <path d="M365.14003,281.36181h1.63629v-5.72701h0.93787c1.75602,0 2.61407,0.65851 2.89344,2.1152c0.19955,0.99774 0.53878,2.53425 0.8381,3.61181h1.8957c-0.31928,-0.89796 -0.79819,-2.55421 -1.0576,-3.77144c-0.31928,-1.55647 -0.8381,-2.61407 -2.29479,-2.91339c1.63629,-0.33923 3.07303,-1.57642 3.07303,-3.37235c0,-2.31475 -1.63629,-3.87122 -4.92882,-3.87122c-0.87801,0 -1.83584,0.07982 -2.99321,0.23946zM366.77632,274.29784v-5.32791c0.63855,-0.07982 0.95783,-0.09977 1.39683,-0.09977c2.03538,0 3.11294,0.95783 3.11294,2.59412c0,1.79593 -1.65624,2.83357 -3.81135,2.83357z"
                      data-paper-data="{&quot;glyphName&quot;:&quot;R&quot;,&quot;glyphIndex&quot;:13,&quot;word&quot;:2}"></path>
                <path d="M389.2693,267.63296h-2.49434l-0.19955,13.72885h1.59638l0.11973,-8.34108c0.01995,-0.79819 -0.03991,-2.99321 -0.07982,-4.19049c0.37914,1.4966 0.97778,3.3923 1.29706,4.19049l3.15285,8.26126h1.77597l3.15285,-8.26126c0.45896,-1.19728 0.99774,-2.9533 1.2771,-4.19049c-0.03991,1.19728 -0.07982,2.99321 -0.05986,4.19049l0.11973,8.34108h1.63629l-0.19955,-13.72885h-2.47439l-3.19276,8.58053c-0.439,1.19728 -0.81814,2.39457 -1.11746,3.59185c-0.29932,-1.19728 -0.67846,-2.39457 -1.11746,-3.59185z"
                      data-paper-data="{&quot;glyphName&quot;:&quot;M&quot;,&quot;glyphIndex&quot;:14,&quot;word&quot;:2}"></path>
                <path d="M421.91457,269.14952v-1.43674h-7.30343v13.64904h7.38325v-1.43674h-5.74696v-4.76918h5.02859v-1.43674h-5.02859v-4.56963z"
                      data-paper-data="{&quot;glyphName&quot;:&quot;E&quot;,&quot;glyphIndex&quot;:15,&quot;word&quot;:2}"></path>
                <path d="M444.74405,281.36181v-13.72885h-1.55647v7.78235c0,1.19728 0,2.47439 0.05986,3.97099c-0.57869,-1.35692 -1.4567,-2.77371 -2.17507,-3.97099l-4.80909,-7.78235h-1.93561v13.72885h1.55647v-7.94198c0,-1.19728 0,-2.07529 -0.05986,-3.67167c0.75828,1.51656 1.33697,2.47439 2.09525,3.67167l4.88891,7.94198z"
                      data-paper-data="{&quot;glyphName&quot;:&quot;N&quot;,&quot;glyphIndex&quot;:16,&quot;word&quot;:2}"></path>
                <path d="M466.46282,269.14952v-1.43674h-9.93746v1.43674h4.15058v12.2123h1.63629v-12.2123z"
                      data-paper-data="{&quot;glyphName&quot;:&quot;T&quot;,&quot;glyphIndex&quot;:17,&quot;lastGlyphOfWord&quot;:true,&quot;word&quot;:2}"></path>
            </g>
            <g data-paper-data="{&quot;isPrimaryText&quot;:true}">
                <path d="M95.11246,192.47332c-18.69728,0 -30.11246,7.87254 -30.11246,29.52202c0,21.64948 12.39925,29.52202 31.09653,29.52202c10.2343,0 17.41799,-3.24742 18.69728,-3.93627c0.88566,-0.49203 0.88566,-0.98407 0.88566,-1.77132c0,-1.86973 -0.09841,-3.54264 -0.29522,-5.01874c-0.19681,-1.27929 -0.68885,-1.18088 -1.57451,-0.78725c-1.18088,0.59044 -8.46298,4.13308 -17.71321,4.13308c-12.20244,0 -22.14152,-4.82193 -22.14152,-22.14152c0,-15.74508 6.98688,-22.83037 21.25586,-22.83037c5.70759,0 8.06935,0.98407 9.74227,1.27929c0.29522,0.09841 0.49203,0.29522 0.49203,0.59044v8.06935c0,0.59044 0.19681,0.88566 0.68885,0.98407c0.49203,0.09841 1.57451,0.19681 3.73946,0.19681c2.16495,0 3.24742,-0.09841 3.73946,-0.19681c0.49203,-0.09841 0.68885,-0.39363 0.68885,-0.98407v-11.90722c0,-1.08247 -0.09841,-1.86973 -1.37769,-2.26336c-2.06654,-0.59044 -8.95501,-2.46017 -17.81162,-2.46017z"
                      data-paper-data="{&quot;glyphName&quot;:&quot;C&quot;,&quot;glyphIndex&quot;:0,&quot;firstGlyphOfWord&quot;:true,&quot;word&quot;:1}"
                      fill="#ff7f32"></path>
                <path d="M132.1134,225.04595c0.39363,-8.16776 5.01874,-12.20244 13.67854,-12.20244c8.65979,0 13.1865,4.23149 13.1865,12.20244c0,0.49203 -0.19681,0.68885 -0.68885,0.68885h-25.48735c-0.49203,0 -0.68885,-0.19681 -0.68885,-0.68885zM132.21181,232.42646c0,-0.29522 0.19681,-0.49203 0.49203,-0.49203h33.16307c0.88566,0 1.18088,-0.09841 1.27929,-0.98407c0.09841,-0.98407 0.19681,-2.06654 0.19681,-3.54264c0,-13.87535 -7.47891,-20.96064 -21.8463,-20.96064c-15.74508,0 -21.8463,9.05342 -21.8463,22.83037c0,16.63074 10.2343,22.43674 24.40487,22.43674c8.56139,0 13.97376,-2.16495 15.44986,-2.8538c0.88566,-0.39363 0.88566,-0.78725 0.88566,-1.4761c0,-1.4761 -0.19681,-3.64105 -0.39363,-4.82193c-0.09841,-0.78725 -0.68885,-0.98407 -1.37769,-0.68885c-1.27929,0.49203 -6.98688,3.05061 -13.97376,3.05061c-8.26617,0 -16.0403,-2.8538 -16.43393,-12.49766z"
                      data-paper-data="{&quot;glyphName&quot;:&quot;e&quot;,&quot;glyphIndex&quot;:1,&quot;word&quot;:1}"
                      fill="#ff7f32"></path>
                <path d="M179.84067,250.92693c1.86973,0.29522 4.82193,0.29522 6.69166,0c0.68885,-0.09841 0.78725,-0.29522 0.78725,-0.98407v-23.42081c0,-8.65979 3.73946,-13.38332 12.59606,-13.38332c8.46298,0 10.92315,3.73946 10.92315,12.59606v17.91003c0,6.49485 2.75539,7.38051 8.36457,7.38051h4.3299c0.68885,0 0.88566,-0.09841 0.98407,-0.78725c0.19681,-1.86973 0.19681,-3.83786 0,-5.21556c-0.09841,-0.68885 -0.29522,-0.78725 -0.98407,-0.78725h-3.73946c-0.49203,0 -0.68885,-0.19681 -0.68885,-0.68885v-20.27179c0,-11.7104 -5.11715,-16.92596 -17.31959,-16.92596c-8.65979,0 -12.69447,3.93627 -14.07216,5.31396c-0.39363,0.39363 -0.59044,0.39363 -0.78725,0.39363h-0.19681c-0.29522,0 -0.49203,0 -0.59044,-0.49203l-0.49203,-3.34583c-0.09841,-0.78725 -0.39363,-1.08247 -1.37769,-1.08247h-10.52952c-0.68885,0 -0.88566,0.09841 -0.98407,0.78725c-0.19681,1.86973 -0.19681,3.83786 0,5.21556c0.09841,0.68885 0.29522,0.78725 0.98407,0.78725h4.62512c0.49203,0 0.68885,0.19681 0.68885,0.68885v35.32802c0,0.68885 0.09841,0.88566 0.78725,0.98407z"
                      data-paper-data="{&quot;glyphName&quot;:&quot;n&quot;,&quot;glyphIndex&quot;:2,&quot;word&quot;:1}"
                      fill="#ff7f32"></path>
                <path d="M255.12184,243.84164c-0.98407,0.19681 -3.34583,0.68885 -6.19963,0.68885c-5.60918,0 -8.65979,-1.4761 -8.65979,-9.15183v-20.76382c0,-0.49203 0.19681,-0.68885 0.68885,-0.68885h13.38332c0.68885,0 0.88566,-0.09841 0.98407,-0.78725c0.19681,-1.37769 0.19681,-3.34583 0,-5.21556c-0.09841,-0.68885 -0.29522,-0.78725 -0.98407,-0.78725h-13.38332c-0.49203,0 -0.68885,-0.19681 -0.68885,-0.68885v-10.82474c0,-0.68885 -0.09841,-0.88566 -0.78725,-0.98407c-1.86973,-0.29522 -4.82193,-0.29522 -6.69166,0c-0.68885,0.09841 -0.78725,0.29522 -0.78725,0.98407v40.8388c0,10.62793 5.806,14.85942 15.25305,14.85942c4.62512,0 6.88847,-0.49203 8.26617,-0.88566c0.68885,-0.19681 0.88566,-0.39363 0.98407,-1.18088c0.09841,-1.37769 0,-3.34583 -0.19681,-4.52671c-0.09841,-0.68885 -0.39363,-1.08247 -1.18088,-0.88566z"
                      data-paper-data="{&quot;glyphName&quot;:&quot;t&quot;,&quot;glyphIndex&quot;:3,&quot;word&quot;:1}"
                      fill="#ff7f32"></path>
                <path d="M282.2821,245.21933c-6.39644,0 -11.21837,-1.08247 -11.21837,-7.47891c0,-5.9044 4.03468,-7.57732 13.58013,-7.57732h10.1359c0.29522,0 0.49203,0.19681 0.49203,0.49203v1.08247c0,9.15183 -4.4283,13.48172 -12.98969,13.48172zM307.96626,251.02533c0.68885,0 0.88566,-0.09841 0.98407,-0.78725c0.19681,-1.86973 0.19681,-3.83786 0,-5.21556c-0.09841,-0.68885 -0.29522,-0.78725 -0.98407,-0.78725h-3.73946c-0.49203,0 -0.68885,-0.19681 -0.68885,-0.68885v-18.20525c0,-11.11996 -3.24742,-18.9925 -19.87816,-18.9925c-9.15183,0 -14.76101,1.96813 -15.94189,2.36176c-0.88566,0.29522 -0.88566,0.68885 -0.88566,1.37769c0,1.4761 0.19681,3.34583 0.39363,4.72352c0.09841,0.78725 0.49203,0.98407 1.27929,0.68885c1.37769,-0.49203 7.87254,-2.55858 14.66261,-2.55858c7.87254,0 12.10403,2.55858 12.10403,9.25023v1.08247c0,0.49203 -0.19681,0.68885 -0.68885,0.68885h-9.64386c-15.54827,0 -22.63355,2.8538 -22.63355,14.07216c0,10.43112 7.57732,13.67854 17.22118,13.67854c9.84067,0 13.48172,-4.13308 14.85942,-5.21556c0.39363,-0.29522 0.59044,-0.29522 0.98407,-0.29522h0.49203c0.29522,0 0.49203,0.09841 0.59044,0.49203l0.59044,3.14902c0.19681,0.88566 0.59044,1.18088 1.4761,1.18088z"
                      data-paper-data="{&quot;glyphName&quot;:&quot;a&quot;,&quot;glyphIndex&quot;:4,&quot;word&quot;:1}"
                      fill="#ff7f32"></path>
                <path d="M317.61012,243.64483c0,6.49485 2.75539,7.38051 8.36457,7.38051h4.3299c0.68885,0 0.88566,-0.09841 0.98407,-0.78725c0.19681,-1.86973 0.19681,-3.83786 0,-5.21556c-0.09841,-0.68885 -0.29522,-0.78725 -0.98407,-0.78725h-3.73946c-0.49203,0 -0.68885,-0.19681 -0.68885,-0.68885v-53.82849c0,-0.88566 -0.39363,-1.27929 -1.27929,-1.27929h-12.30084c-0.68885,0 -0.88566,0.09841 -0.98407,0.78725c-0.19681,1.86973 -0.19681,3.83786 0,5.21556c0.09841,0.68885 0.29522,0.78725 0.98407,0.78725h4.62512c0.49203,0 0.68885,0.19681 0.68885,0.68885z"
                      data-paper-data="{&quot;glyphName&quot;:&quot;l&quot;,&quot;glyphIndex&quot;:5,&quot;word&quot;:1}"
                      fill="#ff7f32"></path>
                <path d="M357.76007,245.21933c-6.39644,0 -11.21837,-1.08247 -11.21837,-7.47891c0,-5.9044 4.03468,-7.57732 13.58013,-7.57732h10.1359c0.29522,0 0.49203,0.19681 0.49203,0.49203v1.08247c0,9.15183 -4.4283,13.48172 -12.98969,13.48172zM383.44424,251.02533c0.68885,0 0.88566,-0.09841 0.98407,-0.78725c0.19681,-1.86973 0.19681,-3.83786 0,-5.21556c-0.09841,-0.68885 -0.29522,-0.78725 -0.98407,-0.78725h-3.73946c-0.49203,0 -0.68885,-0.19681 -0.68885,-0.68885v-18.20525c0,-11.11996 -3.24742,-18.9925 -19.87816,-18.9925c-9.15183,0 -14.76101,1.96813 -15.94189,2.36176c-0.88566,0.29522 -0.88566,0.68885 -0.88566,1.37769c0,1.4761 0.19681,3.34583 0.39363,4.72352c0.09841,0.78725 0.49203,0.98407 1.27929,0.68885c1.37769,-0.49203 7.87254,-2.55858 14.66261,-2.55858c7.87254,0 12.10403,2.55858 12.10403,9.25023v1.08247c0,0.49203 -0.19681,0.68885 -0.68885,0.68885h-9.64386c-15.54827,0 -22.63355,2.8538 -22.63355,14.07216c0,10.43112 7.57732,13.67854 17.22118,13.67854c9.84067,0 13.48172,-4.13308 14.85942,-5.21556c0.39363,-0.29522 0.59044,-0.29522 0.98407,-0.29522h0.49203c0.29522,0 0.49203,0.09841 0.59044,0.49203l0.59044,3.14902c0.19681,0.88566 0.59044,1.18088 1.4761,1.18088z"
                      data-paper-data="{&quot;glyphName&quot;:&quot;a&quot;,&quot;glyphIndex&quot;:6,&quot;word&quot;:1}"
                      fill="#ff7f32"></path>
                <path d="M414.54077,212.84351c10.33271,0 13.97376,6.29803 13.97376,16.23711c0,9.93908 -3.64105,16.23711 -13.97376,16.23711c-10.33271,0 -13.97376,-6.29803 -13.97376,-16.23711c0,-9.93908 3.64105,-16.23711 13.97376,-16.23711zM393.0881,249.94286c0,0.68885 0.09841,0.88566 0.78725,0.98407c1.86973,0.29522 4.23149,0.29522 6.10122,0c0.59044,-0.09841 0.78725,-0.29522 0.88566,-0.88566l0.49203,-2.46017c0.09841,-0.39363 0.29522,-0.49203 0.59044,-0.49203h0.49203c0.59044,0 0.59044,0.09841 0.88566,0.29522c1.18088,0.98407 3.93627,4.3299 12.69447,4.3299c11.41518,0 20.76382,-6.00281 20.76382,-22.63355c0,-16.53233 -9.15183,-22.63355 -20.3702,-22.63355c-7.87254,0 -11.90722,3.14902 -13.1865,4.03468c-0.39363,0.29522 -0.39363,0.29522 -0.78725,0.29522h-0.49203c-0.49203,0 -0.59044,-0.09841 -0.59044,-0.59044v-20.4686c0,-0.88566 -0.39363,-1.27929 -1.27929,-1.27929h-12.30084c-0.68885,0 -0.88566,0.09841 -0.98407,0.78725c-0.19681,1.86973 -0.19681,3.83786 0,5.21556c0.09841,0.68885 0.29522,0.78725 0.98407,0.78725h4.62512c0.49203,0 0.68885,0.19681 0.68885,0.68885z"
                      data-paper-data="{&quot;glyphName&quot;:&quot;b&quot;,&quot;glyphIndex&quot;:7,&quot;word&quot;:1}"
                      fill="#ff7f32"></path>
                <path d="M480.76851,215.5989c0.68885,0.19681 1.08247,0.09841 1.18088,-0.68885c0.19681,-1.18088 0.29522,-2.75539 0.29522,-4.23149c0,-0.68885 0,-1.08247 -0.88566,-1.4761c-1.67291,-0.68885 -8.56139,-2.75539 -16.43393,-2.75539c-9.74227,0 -18.79569,2.06654 -18.79569,12.39925c0,9.44705 8.7582,11.51359 19.28772,13.0881c9.25023,1.37769 11.31678,3.05061 11.31678,7.08529c0,5.31396 -5.60918,6.29803 -11.612,6.29803c-7.67573,0 -14.85942,-2.26336 -17.91003,-3.24742c-0.68885,-0.19681 -1.08247,-0.09841 -1.18088,0.68885c-0.19681,1.18088 -0.29522,3.24742 -0.29522,4.72352c0,0.68885 -0.09841,1.08247 0.78725,1.4761c2.46017,0.88566 9.44705,2.75539 18.20525,2.75539c9.84067,0 20.27179,-2.26336 20.27179,-13.38332c0,-10.1359 -7.57732,-11.80881 -19.18932,-13.87535c-6.10122,-1.08247 -11.612,-1.57451 -11.612,-6.49485c0,-4.3299 4.62512,-5.21556 10.92315,-5.21556c6.69166,0 13.67854,2.26336 15.64667,2.8538z"
                      data-paper-data="{&quot;glyphName&quot;:&quot;s&quot;,&quot;glyphIndex&quot;:8,&quot;lastGlyphOfWord&quot;:true,&quot;word&quot;:1}"
                      fill="#ff7f32"></path>
            </g>
        </g>
    </g>
</svg>
