<svg xmlns:mydata="http://www.w3.org/2000/svg" mydata:contrastcolor="11111f" mydata:template="Contrast"
     mydata:presentation="2.5" mydata:layouttype="undefined" mydata:specialfontid="undefined" mydata:id1="290"
     mydata:id2="213" mydata:companyname="Centalabs" mydata:companytagline="Digital Empowerment" version="1.1"
     xmlns="http://www.w3.org/2000/svg" xmlns:xlink="http://www.w3.org/1999/xlink" viewBox="0 35 550 400">
    <g fill="#ff7f32" fill-rule="nonzero" stroke="none" stroke-width="1" stroke-linecap="butt" stroke-linejoin="miter"
       stroke-miterlimit="10" stroke-dasharray="" stroke-dashoffset="0" font-family="none" font-weight="none"
       font-size="none" text-anchor="none" style="mix-blend-mode: normal">
        <g data-paper-data="{&quot;isGlobalGroup&quot;:true,&quot;bounds&quot;:{&quot;x&quot;:102.5286361283447,&quot;y&quot;:115,&quot;width&quot;:344.94272774331057,&quot;height&quot;:240}}">
            <g data-paper-data="{&quot;isSecondaryText&quot;:true}">
                <path d="M113.19409,354.78695c0.65555,0.13111 1.68803,0.21305 2.3108,0.21305c3.85134,0 6.67019,-2.17969 6.67019,-6.03103c0,-3.31051 -2.03219,-5.57215 -6.24408,-5.57215c-0.7211,0 -1.75359,0.08194 -2.73691,0.19666zM114.53796,344.67514c0.49166,-0.06555 0.98332,-0.09833 1.34387,-0.09833c3.21218,0 4.83466,1.63887 4.83466,4.55605c0,2.99913 -2.17969,4.68716 -5.11326,4.68716c-0.24583,0 -0.70471,-0.03278 -1.06526,-0.08194z"
                      data-paper-data="{&quot;glyphName&quot;:&quot;D&quot;,&quot;glyphIndex&quot;:0,&quot;firstGlyphOfWord&quot;:true,&quot;word&quot;:1}"></path>
                <path d="M133.02355,354.83611v-11.2754h-1.34387v11.2754z"
                      data-paper-data="{&quot;glyphName&quot;:&quot;I&quot;,&quot;glyphIndex&quot;:1,&quot;word&quot;:1}"></path>
                <path d="M151.38465,349.41147h-3.753v1.17998h2.40913v2.88441c-0.5736,0.22944 -1.47498,0.34416 -2.04858,0.34416c-2.35997,0 -4.01522,-1.52415 -4.01522,-4.67077c0,-3.06468 2.04858,-4.58883 4.17911,-4.58883c1.31109,0 2.37636,0.31138 3.24496,0.81943l0.09833,-1.26193c-0.68832,-0.45888 -1.91747,-0.7211 -3.1794,-0.7211c-2.91718,0 -5.85075,1.90109 -5.85075,5.88353c0,3.67106 2.11414,5.71964 5.37548,5.71964c1.04887,0 2.62219,-0.24583 3.53995,-0.63916z"
                      data-paper-data="{&quot;glyphName&quot;:&quot;G&quot;,&quot;glyphIndex&quot;:2,&quot;word&quot;:1}"></path>
                <path d="M162.74702,354.83611v-11.2754h-1.34387v11.2754z"
                      data-paper-data="{&quot;glyphName&quot;:&quot;I&quot;,&quot;glyphIndex&quot;:3,&quot;word&quot;:1}"></path>
                <path d="M179.19662,344.80625v-1.17998h-8.16156v1.17998h3.40884v10.02986h1.34387v-10.02986z"
                      data-paper-data="{&quot;glyphName&quot;:&quot;T&quot;,&quot;glyphIndex&quot;:4,&quot;word&quot;:1}"></path>
                <path d="M193.60821,351.11589l1.19637,3.72023h1.47498l-3.81856,-11.2754h-1.7372l-3.81856,11.2754h1.42581l1.19637,-3.72023zM193.23127,349.9359h-3.3269l1.65526,-5.17882z"
                      data-paper-data="{&quot;glyphName&quot;:&quot;A&quot;,&quot;glyphIndex&quot;:5,&quot;word&quot;:1}"></path>
                <path d="M207.46725,353.65613v-10.09542h-1.34387v11.2754h6.11297v-1.17998z"
                      data-paper-data="{&quot;glyphName&quot;:&quot;L&quot;,&quot;glyphIndex&quot;:6,&quot;lastGlyphOfWord&quot;:true,&quot;word&quot;:1}"></path>
                <path d="M237.64365,344.80625v-1.17998h-5.99825v11.20985h6.06381v-1.17998h-4.71994v-3.91689h4.12994v-1.17998h-4.12994v-3.753z"
                      data-paper-data="{&quot;glyphName&quot;:&quot;E&quot;,&quot;glyphIndex&quot;:7,&quot;firstGlyphOfWord&quot;:true,&quot;word&quot;:2}"></path>
                <path d="M250.72577,343.56071h-2.04858l-0.16389,11.2754h1.31109l0.09833,-6.85046c0.01639,-0.65555 -0.03278,-2.4583 -0.06555,-3.44162c0.31138,1.22915 0.80304,2.78607 1.06526,3.44162l2.58941,6.78491h1.45859l2.58941,-6.78491c0.37694,-0.98332 0.81943,-2.42552 1.04887,-3.44162c-0.03278,0.98332 -0.06555,2.4583 -0.04917,3.44162l0.09833,6.85046h1.34387l-0.16389,-11.2754h-2.03219l-2.62219,7.04713c-0.36055,0.98332 -0.67194,1.96664 -0.91777,2.94996c-0.24583,-0.98332 -0.55721,-1.96664 -0.91777,-2.94996z"
                      data-paper-data="{&quot;glyphName&quot;:&quot;M&quot;,&quot;glyphIndex&quot;:8,&quot;word&quot;:2}"></path>
                <path d="M271.63657,354.83611h1.34387v-4.58883c0.27861,0.03278 0.47527,0.04917 0.73749,0.04917c2.39275,0 4.47411,-1.17998 4.47411,-3.60551c0,-1.85192 -1.39304,-3.29412 -4.09717,-3.29412c-0.7211,0 -1.50776,0.06555 -2.4583,0.24583zM272.98044,344.65875c0.52444,-0.06555 0.78666,-0.08194 1.14721,-0.08194c1.67164,0 2.6058,0.90138 2.6058,2.27802c0,1.50776 -1.27832,2.29441 -2.96635,2.29441c-0.19666,0 -0.54083,-0.01639 -0.78666,-0.04917z"
                      data-paper-data="{&quot;glyphName&quot;:&quot;P&quot;,&quot;glyphIndex&quot;:9,&quot;word&quot;:2}"></path>
                <path d="M292.74228,343.39683c-3.08107,0 -5.2116,2.24525 -5.2116,5.80159c0,3.55634 2.13053,5.80159 5.2116,5.80159c3.08107,0 5.2116,-2.24525 5.2116,-5.80159c0,-3.55634 -2.13053,-5.80159 -5.2116,-5.80159zM292.74228,344.57681c1.98303,0 3.70384,1.50776 3.70384,4.6216c0,3.11385 -1.72081,4.6216 -3.70384,4.6216c-1.98303,0 -3.70384,-1.50776 -3.70384,-4.6216c0,-3.11385 1.72081,-4.6216 3.70384,-4.6216z"
                      data-paper-data="{&quot;glyphName&quot;:&quot;O&quot;,&quot;glyphIndex&quot;:10,&quot;word&quot;:2}"></path>
                <path d="M310.15209,343.56071h-1.54053l3.0319,11.2754h1.72081l1.60609,-6.85046c0.22944,-0.98332 0.40972,-1.96664 0.55721,-2.94996c0.1475,0.98332 0.34416,1.96664 0.5736,2.94996l1.60609,6.85046h1.70442l3.08107,-11.2754h-1.45859l-1.76998,7.04713c-0.24583,0.98332 -0.47527,1.96664 -0.63916,2.96635c-0.13111,-0.99971 -0.31138,-1.98303 -0.55721,-2.96635l-1.70442,-6.98157h-1.55692l-1.70442,6.98157c-0.22944,0.98332 -0.44249,1.96664 -0.58999,2.94996c-0.18028,-0.98332 -0.36055,-1.85192 -0.62277,-2.94996z"
                      data-paper-data="{&quot;glyphName&quot;:&quot;W&quot;,&quot;glyphIndex&quot;:11,&quot;word&quot;:2}"></path>
                <path d="M339.01495,344.80625v-1.17998h-5.99825v11.20985h6.06381v-1.17998h-4.71994v-3.91689h4.12994v-1.17998h-4.12994v-3.753z"
                      data-paper-data="{&quot;glyphName&quot;:&quot;E&quot;,&quot;glyphIndex&quot;:12,&quot;word&quot;:2}"></path>
                <path d="M349.0313,354.83611h1.34387v-4.70355h0.77027c1.4422,0 2.14692,0.54083 2.37636,1.7372c0.16389,0.81943 0.44249,2.08136 0.68832,2.96635h1.55692c-0.26222,-0.73749 -0.65555,-2.09775 -0.8686,-3.09746c-0.26222,-1.27832 -0.68832,-2.14692 -1.8847,-2.39275c1.34387,-0.27861 2.52385,-1.2947 2.52385,-2.76968c0,-1.90109 -1.34387,-3.1794 -4.048,-3.1794c-0.7211,0 -1.50776,0.06555 -2.4583,0.19666zM350.37518,349.03453v-4.37577c0.52444,-0.06555 0.78666,-0.08194 1.14721,-0.08194c1.67164,0 2.55663,0.78666 2.55663,2.13053c0,1.47498 -1.36026,2.32719 -3.13024,2.32719z"
                      data-paper-data="{&quot;glyphName&quot;:&quot;R&quot;,&quot;glyphIndex&quot;:13,&quot;word&quot;:2}"></path>
                <path d="M368.84849,343.56071h-2.04858l-0.16389,11.2754h1.31109l0.09833,-6.85046c0.01639,-0.65555 -0.03278,-2.4583 -0.06555,-3.44162c0.31138,1.22915 0.80304,2.78607 1.06526,3.44162l2.58941,6.78491h1.45859l2.58941,-6.78491c0.37694,-0.98332 0.81943,-2.42552 1.04887,-3.44162c-0.03278,0.98332 -0.06555,2.4583 -0.04917,3.44162l0.09833,6.85046h1.34387l-0.16389,-11.2754h-2.03219l-2.62219,7.04713c-0.36055,0.98332 -0.67194,1.96664 -0.91777,2.94996c-0.24583,-0.98332 -0.55721,-1.96664 -0.91777,-2.94996z"
                      data-paper-data="{&quot;glyphName&quot;:&quot;M&quot;,&quot;glyphIndex&quot;:14,&quot;word&quot;:2}"></path>
                <path d="M395.65979,344.80625v-1.17998h-5.99825v11.20985h6.06381v-1.17998h-4.71994v-3.91689h4.12994v-1.17998h-4.12994v-3.753z"
                      data-paper-data="{&quot;glyphName&quot;:&quot;E&quot;,&quot;glyphIndex&quot;:15,&quot;word&quot;:2}"></path>
                <path d="M414.40947,354.83611v-11.2754h-1.27832v6.39158c0,0.98332 0,2.03219 0.04917,3.26134c-0.47527,-1.11443 -1.19637,-2.27802 -1.78636,-3.26134l-3.94967,-6.39158h-1.5897v11.2754h1.27832v-6.52269c0,-0.98332 0,-1.70442 -0.04917,-3.01551c0.62277,1.24554 1.09804,2.03219 1.72081,3.01551l4.01522,6.52269z"
                      data-paper-data="{&quot;glyphName&quot;:&quot;N&quot;,&quot;glyphIndex&quot;:16,&quot;word&quot;:2}"></path>
                <path d="M432.24692,344.80625v-1.17998h-8.16156v1.17998h3.40884v10.02986h1.34387v-10.02986z"
                      data-paper-data="{&quot;glyphName&quot;:&quot;T&quot;,&quot;glyphIndex&quot;:17,&quot;lastGlyphOfWord&quot;:true,&quot;word&quot;:2}"></path>
            </g>
            <g data-paper-data="{&quot;isPrimaryText&quot;:true}">
                <path d="M127.25977,281.83269c-15.35593,0 -24.73113,6.46566 -24.73113,24.24621c0,17.78055 10.18341,24.24621 25.53934,24.24621c8.40535,0 14.30526,-2.66708 15.35593,-3.23283c0.72739,-0.4041 0.72739,-0.80821 0.72739,-1.45477c0,-1.53559 -0.08082,-2.90955 -0.24246,-4.12186c-0.16164,-1.05067 -0.56574,-0.96985 -1.29313,-0.64657c-0.96985,0.48492 -6.95058,3.39447 -14.54773,3.39447c-10.02177,0 -18.18466,-3.96021 -18.18466,-18.18466c0,-12.93131 5.73827,-18.7504 17.45727,-18.7504c4.6876,0 6.6273,0.80821 8.00125,1.05067c0.24246,0.08082 0.4041,0.24246 0.4041,0.48492v6.6273c0,0.48492 0.16164,0.72739 0.56574,0.80821c0.4041,0.08082 1.29313,0.16164 3.07119,0.16164c1.77806,0 2.66708,-0.08082 3.07119,-0.16164c0.4041,-0.08082 0.56574,-0.32328 0.56574,-0.80821v-9.7793c0,-0.88903 -0.08082,-1.53559 -1.13149,-1.85888c-1.69723,-0.48492 -7.35468,-2.02052 -14.62855,-2.02052z"
                      data-paper-data="{&quot;glyphName&quot;:&quot;C&quot;,&quot;glyphIndex&quot;:0,&quot;firstGlyphOfWord&quot;:true,&quot;word&quot;:1}"
                      fill="#ffffff"></path>
                <path d="M157.64835,308.58434c0.32328,-6.70812 4.12186,-10.02177 11.23408,-10.02177c7.11222,0 10.82997,3.47529 10.82997,10.02177c0,0.4041 -0.16164,0.56574 -0.56574,0.56574h-20.93256c-0.4041,0 -0.56574,-0.16164 -0.56574,-0.56574zM157.72917,314.64589c0,-0.24246 0.16164,-0.4041 0.4041,-0.4041h27.23657c0.72739,0 0.96985,-0.08082 1.05067,-0.80821c0.08082,-0.80821 0.16164,-1.69723 0.16164,-2.90955c0,-11.39572 -6.14237,-17.21481 -17.94219,-17.21481c-12.93131,0 -17.94219,7.4355 -17.94219,18.7504c0,13.6587 8.40535,18.42712 20.04353,18.42712c7.0314,0 11.47654,-1.77806 12.68885,-2.3438c0.72739,-0.32328 0.72739,-0.64657 0.72739,-1.21231c0,-1.21231 -0.16164,-2.99037 -0.32328,-3.96021c-0.08082,-0.64657 -0.56574,-0.80821 -1.13149,-0.56574c-1.05067,0.4041 -5.73827,2.50544 -11.47654,2.50544c-6.78894,0 -13.17377,-2.3438 -13.49706,-10.26423z"
                      data-paper-data="{&quot;glyphName&quot;:&quot;e&quot;,&quot;glyphIndex&quot;:1,&quot;word&quot;:1}"
                      fill="#ffffff"></path>
                <path d="M196.84639,329.84018c1.53559,0.24246 3.96021,0.24246 5.49581,0c0.56574,-0.08082 0.64657,-0.24246 0.64657,-0.80821v-19.23533c0,-7.11222 3.07119,-10.99161 10.34505,-10.99161c6.95058,0 8.9711,3.07119 8.9711,10.34505v14.70937c0,5.33417 2.26298,6.06155 6.86976,6.06155h3.55611c0.56574,0 0.72739,-0.08082 0.80821,-0.64657c0.16164,-1.53559 0.16164,-3.15201 0,-4.2835c-0.08082,-0.56574 -0.24246,-0.64657 -0.80821,-0.64657h-3.07119c-0.4041,0 -0.56574,-0.16164 -0.56574,-0.56574v-16.64906c0,-9.61766 -4.20268,-13.90116 -14.22444,-13.90116c-7.11222,0 -10.42587,3.23283 -11.55736,4.36432c-0.32328,0.32328 -0.48492,0.32328 -0.64657,0.32328h-0.16164c-0.24246,0 -0.4041,0 -0.48492,-0.4041l-0.4041,-2.7479c-0.08082,-0.64657 -0.32328,-0.88903 -1.13149,-0.88903h-8.64781c-0.56574,0 -0.72739,0.08082 -0.80821,0.64657c-0.16164,1.53559 -0.16164,3.15201 0,4.2835c0.08082,0.56574 0.24246,0.64657 0.80821,0.64657h3.79857c0.4041,0 0.56574,0.16164 0.56574,0.56574v29.01463c0,0.56574 0.08082,0.72739 0.64657,0.80821z"
                      data-paper-data="{&quot;glyphName&quot;:&quot;n&quot;,&quot;glyphIndex&quot;:2,&quot;word&quot;:1}"
                      fill="#ffffff"></path>
                <path d="M258.67422,324.02109c-0.80821,0.16164 -2.7479,0.56574 -5.0917,0.56574c-4.60678,0 -7.11222,-1.21231 -7.11222,-7.51632v-17.05317c0,-0.4041 0.16164,-0.56574 0.56574,-0.56574h10.99161c0.56574,0 0.72739,-0.08082 0.80821,-0.64657c0.16164,-1.13149 0.16164,-2.7479 0,-4.2835c-0.08082,-0.56574 -0.24246,-0.64657 -0.80821,-0.64657h-10.99161c-0.4041,0 -0.56574,-0.16164 -0.56574,-0.56574v-8.89028c0,-0.56574 -0.08082,-0.72739 -0.64657,-0.80821c-1.53559,-0.24246 -3.96021,-0.24246 -5.49581,0c-0.56574,0.08082 -0.64657,0.24246 -0.64657,0.80821v33.54059c0,8.72864 4.76842,12.20392 12.52721,12.20392c3.79857,0 5.65745,-0.4041 6.78894,-0.72739c0.56574,-0.16164 0.72739,-0.32328 0.80821,-0.96985c0.08082,-1.13149 0,-2.7479 -0.16164,-3.71775c-0.08082,-0.56574 -0.32328,-0.88903 -0.96985,-0.72739z"
                      data-paper-data="{&quot;glyphName&quot;:&quot;t&quot;,&quot;glyphIndex&quot;:3,&quot;word&quot;:1}"
                      fill="#ffffff"></path>
                <path d="M280.98073,325.15258c-5.25335,0 -9.21356,-0.88903 -9.21356,-6.14237c0,-4.84924 3.31365,-6.22319 11.15326,-6.22319h8.32453c0.24246,0 0.4041,0.16164 0.4041,0.4041v0.88903c0,7.51632 -3.63693,11.07244 -10.66833,11.07244zM302.07493,329.921c0.56574,0 0.72739,-0.08082 0.80821,-0.64657c0.16164,-1.53559 0.16164,-3.15201 0,-4.2835c-0.08082,-0.56574 -0.24246,-0.64657 -0.80821,-0.64657h-3.07119c-0.4041,0 -0.56574,-0.16164 -0.56574,-0.56574v-14.95183c0,-9.13274 -2.66708,-15.59839 -16.32578,-15.59839c-7.51632,0 -12.1231,1.61641 -13.09295,1.9397c-0.72739,0.24246 -0.72739,0.56574 -0.72739,1.13149c0,1.21231 0.16164,2.7479 0.32328,3.87939c0.08082,0.64657 0.4041,0.80821 1.05067,0.56574c1.13149,-0.4041 6.46566,-2.10134 12.04228,-2.10134c6.46566,0 9.94095,2.10134 9.94095,7.59715v0.88903c0,0.4041 -0.16164,0.56574 -0.56574,0.56574h-7.92043c-12.76967,0 -18.58876,2.3438 -18.58876,11.55736c0,8.56699 6.22319,11.23408 14.14362,11.23408c8.08207,0 11.07244,-3.39447 12.20392,-4.2835c0.32328,-0.24246 0.48492,-0.24246 0.80821,-0.24246h0.4041c0.24246,0 0.4041,0.08082 0.48492,0.4041l0.48492,2.58626c0.16164,0.72739 0.48492,0.96985 1.21231,0.96985z"
                      data-paper-data="{&quot;glyphName&quot;:&quot;a&quot;,&quot;glyphIndex&quot;:4,&quot;word&quot;:1}"
                      fill="#ffffff"></path>
                <path d="M309.99536,323.85945c0,5.33417 2.26298,6.06155 6.86976,6.06155h3.55611c0.56574,0 0.72739,-0.08082 0.80821,-0.64657c0.16164,-1.53559 0.16164,-3.15201 0,-4.2835c-0.08082,-0.56574 -0.24246,-0.64657 -0.80821,-0.64657h-3.07119c-0.4041,0 -0.56574,-0.16164 -0.56574,-0.56574v-44.20892c0,-0.72739 -0.32328,-1.05067 -1.05067,-1.05067h-10.10259c-0.56574,0 -0.72739,0.08082 -0.80821,0.64657c-0.16164,1.53559 -0.16164,3.15201 0,4.2835c0.08082,0.56574 0.24246,0.64657 0.80821,0.64657h3.79857c0.4041,0 0.56574,0.16164 0.56574,0.56574z"
                      data-paper-data="{&quot;glyphName&quot;:&quot;l&quot;,&quot;glyphIndex&quot;:5,&quot;word&quot;:1}"
                      fill="#ffffff"></path>
                <path d="M342.9702,325.15258c-5.25335,0 -9.21356,-0.88903 -9.21356,-6.14237c0,-4.84924 3.31365,-6.22319 11.15326,-6.22319h8.32453c0.24246,0 0.4041,0.16164 0.4041,0.4041v0.88903c0,7.51632 -3.63693,11.07244 -10.66833,11.07244zM364.06441,329.921c0.56574,0 0.72739,-0.08082 0.80821,-0.64657c0.16164,-1.53559 0.16164,-3.15201 0,-4.2835c-0.08082,-0.56574 -0.24246,-0.64657 -0.80821,-0.64657h-3.07119c-0.4041,0 -0.56574,-0.16164 -0.56574,-0.56574v-14.95183c0,-9.13274 -2.66708,-15.59839 -16.32578,-15.59839c-7.51632,0 -12.1231,1.61641 -13.09295,1.9397c-0.72739,0.24246 -0.72739,0.56574 -0.72739,1.13149c0,1.21231 0.16164,2.7479 0.32328,3.87939c0.08082,0.64657 0.4041,0.80821 1.05067,0.56574c1.13149,-0.4041 6.46566,-2.10134 12.04228,-2.10134c6.46566,0 9.94095,2.10134 9.94095,7.59715v0.88903c0,0.4041 -0.16164,0.56574 -0.56574,0.56574h-7.92043c-12.76967,0 -18.58876,2.3438 -18.58876,11.55736c0,8.56699 6.22319,11.23408 14.14362,11.23408c8.08207,0 11.07244,-3.39447 12.20392,-4.2835c0.32328,-0.24246 0.48492,-0.24246 0.80821,-0.24246h0.4041c0.24246,0 0.4041,0.08082 0.48492,0.4041l0.48492,2.58626c0.16164,0.72739 0.48492,0.96985 1.21231,0.96985z"
                      data-paper-data="{&quot;glyphName&quot;:&quot;a&quot;,&quot;glyphIndex&quot;:6,&quot;word&quot;:1}"
                      fill="#ffffff"></path>
                <path d="M389.60375,298.56257c8.48617,0 11.47654,5.17252 11.47654,13.33541c0,8.16289 -2.99037,13.33541 -11.47654,13.33541c-8.48617,0 -11.47654,-5.17252 -11.47654,-13.33541c0,-8.16289 2.99037,-13.33541 11.47654,-13.33541zM371.98483,329.03197c0,0.56574 0.08082,0.72739 0.64657,0.80821c1.53559,0.24246 3.47529,0.24246 5.01088,0c0.48492,-0.08082 0.64657,-0.24246 0.72739,-0.72739l0.4041,-2.02052c0.08082,-0.32328 0.24246,-0.4041 0.48492,-0.4041h0.4041c0.48492,0 0.48492,0.08082 0.72739,0.24246c0.96985,0.80821 3.23283,3.55611 10.42587,3.55611c9.3752,0 17.05317,-4.93006 17.05317,-18.58876c0,-13.57788 -7.51632,-18.58876 -16.72988,-18.58876c-6.46566,0 -9.7793,2.58626 -10.82997,3.31365c-0.32328,0.24246 -0.32328,0.24246 -0.64657,0.24246h-0.4041c-0.4041,0 -0.48492,-0.08082 -0.48492,-0.48492v-16.8107c0,-0.72739 -0.32328,-1.05067 -1.05067,-1.05067h-10.10259c-0.56574,0 -0.72739,0.08082 -0.80821,0.64657c-0.16164,1.53559 -0.16164,3.15201 0,4.2835c0.08082,0.56574 0.24246,0.64657 0.80821,0.64657h3.79857c0.4041,0 0.56574,0.16164 0.56574,0.56574z"
                      data-paper-data="{&quot;glyphName&quot;:&quot;b&quot;,&quot;glyphIndex&quot;:7,&quot;word&quot;:1}"
                      fill="#ffffff"></path>
                <path d="M443.99607,300.82555c0.56574,0.16164 0.88903,0.08082 0.96985,-0.56574c0.16164,-0.96985 0.24246,-2.26298 0.24246,-3.47529c0,-0.56574 0,-0.88903 -0.72739,-1.21231c-1.37395,-0.56574 -7.0314,-2.26298 -13.49706,-2.26298c-8.00125,0 -15.43675,1.69723 -15.43675,10.18341c0,7.75879 7.19304,9.45602 15.84086,10.74915c7.59715,1.13149 9.29438,2.50544 9.29438,5.81909c0,4.36432 -4.60678,5.17252 -9.53684,5.17252c-6.30401,0 -12.20392,-1.85888 -14.70937,-2.66708c-0.56574,-0.16164 -0.88903,-0.08082 -0.96985,0.56574c-0.16164,0.96985 -0.24246,2.66708 -0.24246,3.87939c0,0.56574 -0.08082,0.88903 0.64657,1.21231c2.02052,0.72739 7.75879,2.26298 14.95183,2.26298c8.08207,0 16.64906,-1.85888 16.64906,-10.99161c0,-8.32453 -6.22319,-9.69848 -15.76004,-11.39572c-5.01088,-0.88903 -9.53684,-1.29313 -9.53684,-5.33417c0,-3.55611 3.79857,-4.2835 8.9711,-4.2835c5.49581,0 11.23408,1.85888 12.85049,2.3438z"
                      data-paper-data="{&quot;glyphName&quot;:&quot;s&quot;,&quot;glyphIndex&quot;:8,&quot;lastGlyphOfWord&quot;:true,&quot;word&quot;:1}"
                      fill="#ffffff"></path>
            </g>
            <g data-paper-data="{&quot;fillRule&quot;:&quot;nonzero&quot;,&quot;fillRuleOriginal&quot;:&quot;nonzero&quot;,&quot;isIcon&quot;:true,&quot;iconStyle&quot;:&quot;standalone&quot;,&quot;selectedEffects&quot;:{&quot;container&quot;:&quot;&quot;,&quot;transformation&quot;:&quot;&quot;,&quot;pattern&quot;:&quot;&quot;},&quot;bounds&quot;:{&quot;x&quot;:196.489564605978,&quot;y&quot;:115,&quot;width&quot;:157.02087078804402,&quot;height&quot;:135.41207007741744},&quot;iconType&quot;:&quot;initial&quot;,&quot;initialText&quot;:&quot;C&quot;,&quot;rawInitialId&quot;:1050,&quot;suitableAsStandaloneIcon&quot;:true}">
                <path d="M216.66956,247.7267c-1.7688,-0.1608 -3.3768,-0.1608 -4.9848,-0.3216c-7.0752,-0.9648 -11.25601,-4.9848 -12.22081,-11.73841c-0.3216,-3.216 0,-6.43201 0.804,-9.48721c1.92959,-7.3968 5.1456,-14.15041 8.84401,-20.74321c7.23601,-13.02481 15.75841,-25.24562 24.92401,-36.98402c10.13041,-13.02481 21.06481,-25.24562 33.60722,-36.01923c5.3064,-4.66321 11.09521,-9.00481 17.52721,-12.22081c3.216,-1.4472 6.43201,-2.7336 10.13041,-2.5728c2.7336,0 4.66321,1.7688 4.5024,4.5024c0,1.7688 -0.3216,3.69841 -0.804,5.46721c-1.7688,5.7888 -4.66321,11.09521 -8.04,16.24081c-3.5376,5.628 -7.55761,11.25601 -11.41681,16.72321c-0.64319,0.9648 -1.2864,1.7688 -1.608,2.7336c-0.1608,0.4824 0.1608,1.4472 0.64319,1.7688c0.64319,0.4824 1.2864,0 1.7688,-0.64319c0.3216,-0.804 0.804,-1.608 1.2864,-2.2512c2.2512,-3.216 4.5024,-6.2712 6.75361,-9.48721c4.9848,-7.0752 9.32641,-14.47201 12.54241,-22.67282c0.9648,-2.5728 1.608,-5.1456 1.4472,-8.04c-0.1608,-3.8592 -2.5728,-6.5928 -6.43201,-6.9144c-1.12561,-0.1608 -2.2512,0 -3.3768,0.1608c-4.3416,0.4824 -8.20081,2.41201 -11.89921,4.5024c-7.23601,4.18081 -13.82881,9.48721 -19.93922,15.27601c-15.27601,14.15041 -28.30082,30.06962 -40.36083,46.95364c-7.0752,10.29121 -13.82881,20.74321 -18.97441,32.32082c-2.5728,5.628 -4.3416,11.25601 -4.824,17.52721c-0.804,9.48721 4.5024,16.40161 13.82881,18.00961c4.66321,0.9648 9.48721,0.64319 14.31121,-0.1608c8.6832,-1.2864 17.04481,-3.8592 25.24562,-6.9144c17.84881,-6.5928 35.37603,-14.47201 52.42084,-22.83362c12.06001,-5.94961 36.34083,-17.84881 48.24004,-23.79842c0.9648,-0.4824 1.92959,-0.9648 2.5728,-1.7688c0.3216,-0.3216 0.1608,-1.12561 0.3216,-1.7688c-0.64319,0 -1.2864,-0.1608 -1.7688,0c-0.9648,0.3216 -1.608,0.9648 -2.41201,1.4472c-20.42162,10.452 -53.38564,26.21042 -74.28966,35.53683c-11.73841,5.1456 -23.63761,10.29121 -36.01923,13.98961c-7.23601,2.2512 -14.63281,4.02 -22.35121,4.18081z"
                      data-paper-data="{&quot;isPathIcon&quot;:true}" fill="#ffffff"></path>
            </g>
        </g>
    </g>
    <g class="watermark-group" style="opacity:0.040000010281801224">
        <path class="watermark-path"
              d="M129.52,370.3a11.88,11.88,0,0,1,2.58,5.58,12,12,0,0,1,.11,3,11.81,11.81,0,0,1-.64,2.93,12.34,12.34,0,0,1-1.41,2.72,11.65,11.65,0,0,1-2.13,2.32,12,12,0,0,1-2.64,1.69,13,13,0,0,1-2.91.9,12.47,12.47,0,0,1-3,.12,12.17,12.17,0,0,1-2.93-.64,11.8,11.8,0,0,1-2.72-1.38,12.19,12.19,0,0,1-4-4.79,11.85,11.85,0,0,1-.89-2.92,12.14,12.14,0,0,1-.13-3,11.54,11.54,0,0,1,.64-2.92,11.67,11.67,0,0,1,3.5-5,11.44,11.44,0,0,1,2.67-1.69,11.64,11.64,0,0,1,2.92-.91,10.71,10.71,0,0,1,3-.12,11.68,11.68,0,0,1,5.66,2,11.7,11.7,0,0,1,2.34,2.12m-1.4,8.76a13,13,0,0,1-1.22,2.32,9.68,9.68,0,0,1-1.81,2,7.44,7.44,0,0,1-2.38,1.37,6.17,6.17,0,0,1-5.11-.46,8.73,8.73,0,0,1-3.85-4.58,6.69,6.69,0,0,1-.34-2.66,6.09,6.09,0,0,1,.77-2.47,7.15,7.15,0,0,1,1.75-2.11,9.58,9.58,0,0,1,1.09-.81,8.23,8.23,0,0,1,1.12-.63,8.14,8.14,0,0,1,1.19-.46,12.71,12.71,0,0,1,1.32-.37l2,2.38a12.83,12.83,0,0,0-1.56.17,7.86,7.86,0,0,0-1.23.32,4.5,4.5,0,0,0-1,.49,6.41,6.41,0,0,0-.93.67,4.49,4.49,0,0,0-1.15,1.39,3.87,3.87,0,0,0-.45,1.58,4.12,4.12,0,0,0,.26,1.63,6.11,6.11,0,0,0,2.36,2.82,4.43,4.43,0,0,0,1.57.53,3.91,3.91,0,0,0,1.62-.17,4.71,4.71,0,0,0,1.57-.89,10.5,10.5,0,0,0,.83-.79,5.71,5.71,0,0,0,.65-.93,10.13,10.13,0,0,0,.54-1.14,12.24,12.24,0,0,0,.44-1.49l2,2.33m-14.46,4.55a8.86,8.86,0,0,0,2.78,2.22,9,9,0,0,0,3.29.94,9.15,9.15,0,0,0,3.39-.37,8.68,8.68,0,0,0,3.11-1.69,8.8,8.8,0,0,0,2.22-2.78,9.15,9.15,0,0,0,1-3.29,8.95,8.95,0,0,0-4.83-8.76,9,9,0,0,0-6.73-.57,9,9,0,0,0-5.33,4.47,8.94,8.94,0,0,0-.57,6.71,8.76,8.76,0,0,0,1.7,3.12"></path>
        <path class="watermark-path"
              d="M147,349c-.48.12-1.09.31-1.82.57a24.37,24.37,0,0,0-2.4,1A28.35,28.35,0,0,0,140,352a20.72,20.72,0,0,0-2.71,1.94c-.7.59-1.28,1.11-1.74,1.57a15.07,15.07,0,0,0-1.1,1.22,4.09,4.09,0,0,0-.59.92,2.32,2.32,0,0,0-.22.64,1.16,1.16,0,0,0,0,.47,1.83,1.83,0,0,0,.18.29,1.15,1.15,0,0,0,1,.37,5.54,5.54,0,0,0,1.51-.38q.87-.35,1.95-.9l2.26-1.18q1.2-.65,2.49-1.29c.87-.44,1.73-.83,2.59-1.17a18.94,18.94,0,0,1,2.6-.81,9.27,9.27,0,0,1,2.46-.29,6.25,6.25,0,0,1,2.24.49,5.12,5.12,0,0,1,1.89,1.47,6.35,6.35,0,0,1,1.41,2.61,6,6,0,0,1,.09,2.6,8.3,8.3,0,0,1-.9,2.52,17.79,17.79,0,0,1-1.62,2.37,23.92,23.92,0,0,1-2,2.15c-.72.67-1.41,1.29-2.09,1.87a33.79,33.79,0,0,1-5.33,3.7,32.29,32.29,0,0,1-4.91,2.28l-3.61-4.3a21.38,21.38,0,0,0,5.39-1.87,27.2,27.2,0,0,0,5.4-3.56,21.59,21.59,0,0,0,2.38-2.27,8.67,8.67,0,0,0,1.18-1.7,2.32,2.32,0,0,0,.27-1.19,1.34,1.34,0,0,0-.28-.74,1.21,1.21,0,0,0-1-.42,4.32,4.32,0,0,0-1.55.34,15.77,15.77,0,0,0-2,.88c-.72.37-1.48.77-2.27,1.21l-2.45,1.3c-.85.45-1.7.85-2.56,1.21a22.37,22.37,0,0,1-2.54.86,10,10,0,0,1-2.43.32,5.76,5.76,0,0,1-2.2-.45,5,5,0,0,1-1.89-1.45,6.12,6.12,0,0,1-1.31-2.41,6,6,0,0,1-.1-2.41,8.28,8.28,0,0,1,.81-2.38,14.06,14.06,0,0,1,1.49-2.24,22.37,22.37,0,0,1,1.85-2.05q1-1,2-1.77c.7-.59,1.44-1.15,2.23-1.7s1.62-1.06,2.44-1.53,1.63-.91,2.43-1.3,1.58-.75,2.3-1L147,349"></path>
        <path class="watermark-path"
              d="M186.76,337.57l-10.6-12.63,3.92,18.24-4.66,3.91-17.27-7,10.6,12.63-4.86,4.07-15.09-18,6.59-5.54,18.69,7.52-4.15-19.71,6.57-5.52,15.09,18-4.83,4.05"></path>
        <path class="watermark-path"
              d="M208.84,313.24l-10,8.42,1.16,4.82L194.56,331l-5.68-25.89,5.42-4.55,24.51,10.09-5.42,4.55-4.55-2m-11.23,3.45,6.57-5.52-8.83-3.87,2.26,9.39"></path>
        <path class="watermark-path"
              d="M227.49,281.38c-.48.12-1.09.31-1.82.57a24.37,24.37,0,0,0-2.4,1,26.11,26.11,0,0,0-2.7,1.47,20.72,20.72,0,0,0-2.71,1.94c-.7.59-1.28,1.11-1.74,1.57a13.39,13.39,0,0,0-1.1,1.22,4.29,4.29,0,0,0-.59.91,2.48,2.48,0,0,0-.22.65,1.16,1.16,0,0,0,0,.47,1.83,1.83,0,0,0,.18.29,1.15,1.15,0,0,0,1,.37,5.54,5.54,0,0,0,1.51-.38q.87-.34,2-.9l2.26-1.18q1.2-.64,2.49-1.29c.87-.44,1.73-.83,2.59-1.17a18.94,18.94,0,0,1,2.6-.81,9.27,9.27,0,0,1,2.46-.29,6.08,6.08,0,0,1,2.24.49,5.09,5.09,0,0,1,1.89,1.46,6.47,6.47,0,0,1,1.41,2.61,6.07,6.07,0,0,1,.09,2.61,8.3,8.3,0,0,1-.9,2.52,16.32,16.32,0,0,1-1.63,2.36,21.41,21.41,0,0,1-2,2.16c-.72.67-1.41,1.29-2.1,1.86a33.36,33.36,0,0,1-5.32,3.71,31.92,31.92,0,0,1-4.92,2.28l-3.6-4.3a21.38,21.38,0,0,0,5.39-1.87,27.2,27.2,0,0,0,5.4-3.56,21.59,21.59,0,0,0,2.38-2.27,8.67,8.67,0,0,0,1.18-1.7A2.32,2.32,0,0,0,231,293a1.34,1.34,0,0,0-.28-.74,1.21,1.21,0,0,0-1-.42,4.32,4.32,0,0,0-1.55.34,16.54,16.54,0,0,0-2,.88c-.71.37-1.47.77-2.26,1.21l-2.46,1.3c-.84.44-1.7.85-2.55,1.21a24.53,24.53,0,0,1-2.54.86A10,10,0,0,1,214,298a5.76,5.76,0,0,1-2.2-.45,5,5,0,0,1-1.89-1.45,6.12,6.12,0,0,1-1.31-2.41,5.78,5.78,0,0,1-.1-2.41,8,8,0,0,1,.81-2.38,14.61,14.61,0,0,1,1.49-2.25,22.26,22.26,0,0,1,1.85-2q1-1,2-1.77c.7-.59,1.44-1.15,2.23-1.7s1.62-1.06,2.44-1.53,1.63-.91,2.43-1.31,1.58-.74,2.3-1l3.5,4.16"></path>
        <path class="watermark-path"
              d="M261.64,274.74l-6.29-7.5L243,277.61l6.3,7.5-4.86,4.07-15.09-18,4.85-4.08,5.49,6.55L252,263.3l-5.49-6.55,4.86-4.07,15.09,18-4.86,4.08"></path>
        <path class="watermark-path" d="M272.18,265.9l-15.09-18,4.86-4.08,15.09,18-4.86,4.08"></path>
        <path class="watermark-path"
              d="M299.65,242.85l-22.51-2.18L287.51,253l-4.85,4.08-15.1-18,5.28-4.43,22.56,2.22L285,224.5l4.83-4.06,15.09,18-5.26,4.42"></path>
        <path class="watermark-path"
              d="M306.68,205.52a31.88,31.88,0,0,1,5.29-3.66,34.48,34.48,0,0,1,5.14-2.35l3.69,4.39a20.77,20.77,0,0,0-2.37.61,20.47,20.47,0,0,0-2.61,1,25.12,25.12,0,0,0-2.76,1.49,23.9,23.9,0,0,0-2.8,2,20.42,20.42,0,0,0-2.8,2.77,12.77,12.77,0,0,0-1.64,2.52,7,7,0,0,0-.68,2.24,6,6,0,0,0,.66,3.64,8.16,8.16,0,0,0,.94,1.38,9.12,9.12,0,0,0,1.08,1.07,6.39,6.39,0,0,0,1.47.91,6.73,6.73,0,0,0,1.88.48,6.54,6.54,0,0,0,2.28-.18,11.67,11.67,0,0,0,2.74-1.07,19.38,19.38,0,0,0,3.18-2.22c.57-.48,1.06-.92,1.46-1.31a14.57,14.57,0,0,0,1-1.13,11.46,11.46,0,0,0,.81-1.05l.74-1.09-1.82-2.17-5.45,4.57-3.31-3.94,10.31-8.65,7.71,9.19a29,29,0,0,1-1.67,2.43q-1,1.26-2.1,2.52c-.74.84-1.5,1.65-2.3,2.44s-1.58,1.5-2.33,2.14a31,31,0,0,1-3.59,2.61,22.55,22.55,0,0,1-3.64,1.83,15.64,15.64,0,0,1-3.63.89,10.72,10.72,0,0,1-3.49-.15,10.45,10.45,0,0,1-3.28-1.33,12.54,12.54,0,0,1-3-2.67,12,12,0,0,1-2.08-3.44,10.45,10.45,0,0,1-.71-3.5,11.14,11.14,0,0,1,.51-3.51,15.72,15.72,0,0,1,1.56-3.43,21.62,21.62,0,0,1,2.42-3.28,30.3,30.3,0,0,1,3.15-3"></path>
        <path class="watermark-path" d="M336.91,211.59l-15.1-18,4.86-4.08,11.79,14,13.13-11,3.31,3.94-18,15.1"></path>
        <path class="watermark-path"
              d="M374.54,164.71a12.28,12.28,0,0,1,2.59,4.81,10.44,10.44,0,0,1,0,5,14.62,14.62,0,0,1-2.33,5,25.55,25.55,0,0,1-4.56,4.85,26.07,26.07,0,0,1-5.6,3.67,14.79,14.79,0,0,1-5.38,1.43,10.43,10.43,0,0,1-4.94-.89,13.24,13.24,0,0,1-6.87-8.18,10.48,10.48,0,0,1,0-5,14.51,14.51,0,0,1,2.36-5,25.23,25.23,0,0,1,4.57-4.89,25,25,0,0,1,5.59-3.64,14.45,14.45,0,0,1,5.35-1.43,10.31,10.31,0,0,1,4.93.92,12.22,12.22,0,0,1,4.28,3.38m-4.91,4.11a8.36,8.36,0,0,0-2-1.72,5.5,5.5,0,0,0-2.65-.85,7.72,7.72,0,0,0-3.32.57,14.49,14.49,0,0,0-4,2.52,16.72,16.72,0,0,0-2.38,2.4,10.15,10.15,0,0,0-1.39,2.24,6.71,6.71,0,0,0-.56,2.1,5.69,5.69,0,0,0,.1,1.9,6.21,6.21,0,0,0,.61,1.69,9.85,9.85,0,0,0,1,1.44,10.48,10.48,0,0,0,1.26,1.23,6.67,6.67,0,0,0,1.57.92,6.1,6.1,0,0,0,1.85.41,6.8,6.8,0,0,0,2.15-.2,11.06,11.06,0,0,0,2.45-1,17.67,17.67,0,0,0,2.77-1.94,14.39,14.39,0,0,0,3.18-3.52,7.74,7.74,0,0,0,1.14-3.17,5.54,5.54,0,0,0-.37-2.74,8.52,8.52,0,0,0-1.36-2.3"></path>
        <path class="watermark-path"
              d="M382.66,141.76A32.3,32.3,0,0,1,388,138.1a34.12,34.12,0,0,1,5.15-2.35l3.69,4.4a19.62,19.62,0,0,0-2.37.6,22.08,22.08,0,0,0-2.61,1,26,26,0,0,0-2.77,1.49,23.9,23.9,0,0,0-2.8,2,21,21,0,0,0-2.8,2.78,13.19,13.19,0,0,0-1.64,2.51,7.29,7.29,0,0,0-.68,2.24,6.36,6.36,0,0,0,.06,2,5.8,5.8,0,0,0,.61,1.68,8.12,8.12,0,0,0,.93,1.38,9.16,9.16,0,0,0,1.08,1.08,6.56,6.56,0,0,0,1.48.9,6,6,0,0,0,1.87.48,6.76,6.76,0,0,0,2.28-.17,12,12,0,0,0,2.74-1.08,18.57,18.57,0,0,0,3.18-2.22c.58-.48,1.06-.92,1.46-1.31s.75-.77,1.05-1.12.57-.72.81-1.06l.73-1.09-1.82-2.17-5.45,4.57-3.3-3.94,10.3-8.65,7.71,9.19a29,29,0,0,1-1.67,2.43q-1,1.26-2.1,2.52c-.73.84-1.5,1.66-2.3,2.44s-1.57,1.5-2.33,2.14a31,31,0,0,1-3.59,2.61,22.15,22.15,0,0,1-3.64,1.83,15.56,15.56,0,0,1-3.62.89,11,11,0,0,1-3.49-.14,10.84,10.84,0,0,1-3.28-1.33,12.82,12.82,0,0,1-3-2.68,12.12,12.12,0,0,1-2.08-3.43A10.71,10.71,0,0,1,375,155a11.18,11.18,0,0,1,.51-3.51,15.51,15.51,0,0,1,1.57-3.43,21.44,21.44,0,0,1,2.42-3.28,30.19,30.19,0,0,1,3.14-3"></path>
        <path class="watermark-path"
              d="M428.63,119.31a12.26,12.26,0,0,1,2.59,4.82,10.44,10.44,0,0,1,0,5,14.53,14.53,0,0,1-2.34,5,25.29,25.29,0,0,1-4.56,4.86,26,26,0,0,1-5.59,3.67,14.84,14.84,0,0,1-5.38,1.43,10.61,10.61,0,0,1-4.95-.89,12.15,12.15,0,0,1-4.3-3.37,12,12,0,0,1-2.56-4.81,10.48,10.48,0,0,1,0-5,14.39,14.39,0,0,1,2.35-5,27.89,27.89,0,0,1,10.16-8.53,14.49,14.49,0,0,1,5.36-1.43,10.27,10.27,0,0,1,4.92.92,12.21,12.21,0,0,1,4.28,3.37m-4.91,4.12a8.17,8.17,0,0,0-2-1.72,5.58,5.58,0,0,0-2.65-.86,7.86,7.86,0,0,0-3.31.58,14.49,14.49,0,0,0-4,2.52,16.21,16.21,0,0,0-2.38,2.4,9.85,9.85,0,0,0-1.4,2.24,7,7,0,0,0-.56,2.1,6,6,0,0,0,.1,1.9,6.23,6.23,0,0,0,.62,1.69,8.49,8.49,0,0,0,1,1.44,9.18,9.18,0,0,0,1.26,1.23,6.67,6.67,0,0,0,1.57.92,6,6,0,0,0,1.84.41,6.86,6.86,0,0,0,2.16-.2,11.26,11.26,0,0,0,2.45-1,17.62,17.62,0,0,0,2.76-1.94,14.67,14.67,0,0,0,3.19-3.52,7.71,7.71,0,0,0,1.13-3.17,5.53,5.53,0,0,0-.36-2.74,8.55,8.55,0,0,0-1.37-2.3"></path>
    </g>
</svg>
