<svg xmlns="http://www.w3.org/2000/svg" class="svg-standalone-icon" viewBox="196.48 115 157.03 135.43">
    <g data-paper-data="{&quot;fillRule&quot;:&quot;nonzero&quot;,&quot;fillRuleOriginal&quot;:&quot;nonzero&quot;,&quot;isIcon&quot;:true,&quot;iconStyle&quot;:&quot;standalone&quot;,&quot;selectedEffects&quot;:{&quot;container&quot;:&quot;&quot;,&quot;transformation&quot;:&quot;&quot;,&quot;pattern&quot;:&quot;&quot;},&quot;bounds&quot;:{&quot;x&quot;:196.489564605978,&quot;y&quot;:115,&quot;width&quot;:157.02087078804402,&quot;height&quot;:135.41207007741744},&quot;iconType&quot;:&quot;initial&quot;,&quot;initialText&quot;:&quot;C&quot;,&quot;rawInitialId&quot;:1050,&quot;suitableAsStandaloneIcon&quot;:true}"
       fill-rule="nonzero">
        <path d="M216.66956,247.7267c-1.7688,-0.1608 -3.3768,-0.1608 -4.9848,-0.3216c-7.0752,-0.9648 -11.25601,-4.9848 -12.22081,-11.73841c-0.3216,-3.216 0,-6.43201 0.804,-9.48721c1.92959,-7.3968 5.1456,-14.15041 8.84401,-20.74321c7.23601,-13.02481 15.75841,-25.24562 24.92401,-36.98402c10.13041,-13.02481 21.06481,-25.24562 33.60722,-36.01923c5.3064,-4.66321 11.09521,-9.00481 17.52721,-12.22081c3.216,-1.4472 6.43201,-2.7336 10.13041,-2.5728c2.7336,0 4.66321,1.7688 4.5024,4.5024c0,1.7688 -0.3216,3.69841 -0.804,5.46721c-1.7688,5.7888 -4.66321,11.09521 -8.04,16.24081c-3.5376,5.628 -7.55761,11.25601 -11.41681,16.72321c-0.64319,0.9648 -1.2864,1.7688 -1.608,2.7336c-0.1608,0.4824 0.1608,1.4472 0.64319,1.7688c0.64319,0.4824 1.2864,0 1.7688,-0.64319c0.3216,-0.804 0.804,-1.608 1.2864,-2.2512c2.2512,-3.216 4.5024,-6.2712 6.75361,-9.48721c4.9848,-7.0752 9.32641,-14.47201 12.54241,-22.67282c0.9648,-2.5728 1.608,-5.1456 1.4472,-8.04c-0.1608,-3.8592 -2.5728,-6.5928 -6.43201,-6.9144c-1.12561,-0.1608 -2.2512,0 -3.3768,0.1608c-4.3416,0.4824 -8.20081,2.41201 -11.89921,4.5024c-7.23601,4.18081 -13.82881,9.48721 -19.93922,15.27601c-15.27601,14.15041 -28.30082,30.06962 -40.36083,46.95364c-7.0752,10.29121 -13.82881,20.74321 -18.97441,32.32082c-2.5728,5.628 -4.3416,11.25601 -4.824,17.52721c-0.804,9.48721 4.5024,16.40161 13.82881,18.00961c4.66321,0.9648 9.48721,0.64319 14.31121,-0.1608c8.6832,-1.2864 17.04481,-3.8592 25.24562,-6.9144c17.84881,-6.5928 35.37603,-14.47201 52.42084,-22.83362c12.06001,-5.94961 36.34083,-17.84881 48.24004,-23.79842c0.9648,-0.4824 1.92959,-0.9648 2.5728,-1.7688c0.3216,-0.3216 0.1608,-1.12561 0.3216,-1.7688c-0.64319,0 -1.2864,-0.1608 -1.7688,0c-0.9648,0.3216 -1.608,0.9648 -2.41201,1.4472c-20.42162,10.452 -53.38564,26.21042 -74.28966,35.53683c-11.73841,5.1456 -23.63761,10.29121 -36.01923,13.98961c-7.23601,2.2512 -14.63281,4.02 -22.35121,4.18081z"
              data-paper-data="{&quot;isPathIcon&quot;:true}" fill="#ff7f32"></path>
    </g>
</svg>
